<svg width="85" height="24" viewBox="0 0 85 24" fill="none" xmlns="http://www.w3.org/2000/svg">
<path d="M81.7502 7.39093C81.7502 8.04951 81.638 8.65381 81.4227 9.20745C81.2075 9.76109 80.8965 10.2424 80.49 10.6513C80.087 11.0584 79.6013 11.3768 79.0347 11.6011C78.4717 11.8255 77.8407 11.9395 77.1397 11.9431C76.4572 11.9395 75.8317 11.8255 75.2687 11.6048C74.7094 11.3804 74.22 11.0638 73.8134 10.6585C73.4032 10.2496 73.0904 9.76833 72.8678 9.21469C72.6452 8.66467 72.533 8.05313 72.5293 7.39093C72.533 6.74682 72.6452 6.14795 72.8678 5.59793C73.0904 5.04429 73.4032 4.56121 73.8134 4.14507C74.22 3.72894 74.7076 3.40688 75.2687 3.17168C75.8317 2.94009 76.4572 2.82248 77.1397 2.81887C77.8388 2.82248 78.4717 2.94009 79.0347 3.17168C79.6013 3.39965 80.087 3.72532 80.49 4.13783C80.8965 4.55035 81.2075 5.03524 81.4227 5.58888C81.638 6.14252 81.7502 6.74321 81.7502 7.39274M84.8833 7.39274C84.8796 6.24022 84.692 5.21074 84.3204 4.30067C83.9487 3.38698 83.4189 2.61261 82.7326 1.97393C82.0464 1.33344 81.2295 0.846745 80.2839 0.510218C79.3419 0.170073 78.2896 0.00361857 77.1397 0C75.9899 0.00361857 74.9412 0.171882 73.9956 0.510218C73.0499 0.846745 72.2349 1.33344 71.5468 1.97393C70.8606 2.61261 70.3308 3.38698 69.9591 4.30067C69.5912 5.21074 69.3998 6.24203 69.3962 7.39274C69.3998 8.54344 69.5912 9.57474 69.9591 10.4848C70.3308 11.3985 70.8606 12.1711 71.5468 12.8115C72.2331 13.452 73.0481 13.9387 73.9956 14.2753C74.9412 14.6154 75.9899 14.7819 77.1397 14.7855C78.2896 14.7819 79.3419 14.6136 80.2839 14.2753C81.2295 13.9387 82.0446 13.452 82.7326 12.8115C83.4189 12.1711 83.9487 11.3985 84.3204 10.4848C84.692 9.57474 84.8796 8.54344 84.8833 7.39274ZM60.959 14.4435H64.1344V3.14092H68.4983V0.340146H56.5969V3.14092H60.959V14.4435ZM50.2865 10.454C51.199 10.4396 51.9975 10.3021 52.6837 10.0452C53.3699 9.78281 53.9403 9.42819 54.4002 8.96682C54.8583 8.51088 55.2023 7.97895 55.4305 7.37284C55.6586 6.76492 55.7745 6.10634 55.7745 5.39891C55.7745 4.69148 55.6623 4.06908 55.4323 3.46116C55.2042 2.85324 54.862 2.31588 54.4039 1.84909C53.9458 1.38229 53.3773 1.01682 52.6874 0.747235C52.0011 0.48127 51.2027 0.343764 50.2846 0.340146H43.5253V14.4417H46.721V10.4522H50.2846L50.2865 10.454ZM46.7229 3.32366H50.2865C50.7924 3.32728 51.2156 3.4304 51.5559 3.62581C51.8944 3.82302 52.1502 4.08175 52.3249 4.40561C52.496 4.72766 52.5807 5.07685 52.5807 5.46042C52.5807 5.84399 52.496 6.19318 52.3286 6.51162C52.1575 6.83005 51.9055 7.08516 51.5633 7.27694C51.2248 7.47235 50.7979 7.56824 50.2865 7.57548H46.7229V3.32185V3.32366ZM31.2798 0.340146H27.5929V0.501172L33.0828 8.84198V14.4417H36.2785V8.84198L42.013 0.501172V0.340146H38.3464L34.7202 5.93988L31.2798 0.340146ZM21.8768 3.0396C22.2484 3.04322 22.5741 3.11016 22.839 3.23862C23.1094 3.36527 23.3302 3.53353 23.505 3.74522C23.6798 3.95329 23.8085 4.18488 23.895 4.43275C23.9796 4.68062 24.0238 4.9303 24.0275 5.17456C24.0275 5.39891 23.987 5.62688 23.9042 5.85666C23.8214 6.08824 23.6963 6.29993 23.5252 6.49533C23.3541 6.69074 23.1352 6.84814 22.8703 6.96575C22.6035 7.08697 22.2871 7.14668 21.9173 7.15029H18.2708V3.0396H21.8768ZM27.7972 14.1993L23.8637 9.52589C24.5463 9.28344 25.1037 9.003 25.5361 8.68276C25.9703 8.36433 26.3069 8.01513 26.5424 7.63518C26.7816 7.25162 26.9453 6.84995 27.041 6.42296C27.133 5.99597 27.1808 5.5527 27.1808 5.09314C27.1808 4.46893 27.0649 3.87006 26.8386 3.30375C26.6105 2.73564 26.272 2.23266 25.8249 1.78576C25.3779 1.34249 24.8241 0.989679 24.1655 0.730951C23.5031 0.475842 22.7415 0.345573 21.8749 0.338336H15.0752V14.4417H18.2708V9.80814H20.5853L24.2519 14.4417H27.7953V14.1993H27.7972ZM11.1841 10.5536C10.9651 10.7652 10.7168 10.957 10.4334 11.1217C10.1501 11.2899 9.85022 11.4311 9.52826 11.5487C9.20998 11.6627 8.89354 11.7531 8.57526 11.8146C8.25514 11.8743 7.94974 11.9051 7.6609 11.9051C6.99122 11.9015 6.40434 11.8146 5.90208 11.6464C5.4035 11.4745 4.97668 11.2429 4.62896 10.9516C4.28125 10.6567 3.99792 10.3238 3.78267 9.94745C3.56742 9.57112 3.40736 9.17488 3.30801 8.75875C3.20866 8.34261 3.15715 7.92648 3.15347 7.51396C3.14979 7.09783 3.19762 6.67807 3.30065 6.2547C3.40552 5.82771 3.5711 5.41881 3.79187 5.02981C4.01632 4.64082 4.307 4.29162 4.6584 3.98586C5.01347 3.67647 5.4403 3.43583 5.93888 3.25309C6.43377 3.07578 7.00778 2.98532 7.65906 2.9817C8.04541 2.9817 8.42992 3.01789 8.82363 3.09931C9.21182 3.18072 9.5853 3.30737 9.94405 3.47925C10.3028 3.65476 10.6266 3.87549 10.9173 4.1505L12.9245 2.19647C12.183 1.4818 11.368 0.93721 10.4776 0.571734C9.58714 0.20264 8.64702 0.0180929 7.6609 0.0180929C6.61039 0.02533 5.66659 0.166454 4.84054 0.445084C4.0108 0.723714 3.29329 1.10909 2.68249 1.59941C2.07536 2.08611 1.56943 2.6506 1.1702 3.28566C0.774648 3.92072 0.476606 4.59739 0.28343 5.31387C0.0884149 6.03216 -0.00357345 6.75587 0.000106088 7.49225C0.00378562 8.26481 0.095774 9.01386 0.279751 9.73214C0.463728 10.4504 0.747052 11.1162 1.12972 11.7296C1.5124 12.3448 2.00729 12.8785 2.60706 13.338C3.20866 13.7976 3.92801 14.1577 4.7651 14.4128C5.6022 14.6715 6.56808 14.8018 7.6609 14.8054C8.7298 14.809 9.7288 14.6407 10.6616 14.3042C11.5943 13.9659 12.4296 13.4412 13.171 12.7301L11.1841 10.5554V10.5536Z" fill="url(#paint0_radial_1_46)"/>
<path d="M83.1889 17.595C82.946 17.3164 82.6885 17.0993 82.418 16.9419C82.1494 16.7827 81.8569 16.6723 81.546 16.609C81.2351 16.5439 80.8965 16.5131 80.5323 16.5149C80.2379 16.5149 79.9527 16.5457 79.6768 16.6036C79.4026 16.6615 79.1469 16.7483 78.9078 16.8659C78.6723 16.9817 78.4644 17.1246 78.2878 17.2965C78.1093 17.4666 77.9713 17.6656 77.8683 17.8918C77.7689 18.1161 77.7156 18.3694 77.7119 18.6481C77.7119 18.9773 77.7561 19.2578 77.8536 19.493C77.9511 19.7282 78.0872 19.9236 78.2638 20.081C78.4423 20.2384 78.6483 20.3651 78.8875 20.4628C79.1248 20.5587 79.3843 20.6346 79.6639 20.6871C79.9454 20.7396 80.2361 20.7812 80.5396 20.8065C81.0235 20.8427 81.3841 20.9368 81.6232 21.0852C81.8624 21.2335 81.9802 21.4561 81.9746 21.7474C81.9746 21.9156 81.9121 22.0604 81.7925 22.1852C81.6729 22.31 81.5073 22.4077 81.2939 22.4747C81.0824 22.5434 80.8322 22.576 80.5488 22.5778C80.3667 22.5778 80.1772 22.5597 79.9803 22.5199C79.7835 22.4819 79.5885 22.424 79.3953 22.3408C79.2003 22.2612 79.0163 22.1581 78.8415 22.0314C78.6667 21.9084 78.5104 21.7582 78.3724 21.5863L77.4267 22.5579C77.5794 22.804 77.7671 23.0175 77.9934 23.1984C78.2197 23.3793 78.4699 23.5295 78.7477 23.6507C79.0237 23.7683 79.3143 23.857 79.6197 23.9167C79.9233 23.9746 80.2305 24.0017 80.5415 23.9999C80.8505 23.9999 81.1523 23.9692 81.4448 23.9113C81.7373 23.8552 82.0096 23.7683 82.2635 23.6525C82.5155 23.5349 82.7382 23.3884 82.9295 23.2129C83.1208 23.0338 83.2698 22.8239 83.3784 22.5814C83.4869 22.3372 83.5403 22.0604 83.5421 21.7492C83.5421 21.4253 83.4906 21.1431 83.3931 20.9024C83.2956 20.66 83.1576 20.4555 82.9828 20.2836C82.8081 20.1136 82.6057 19.9743 82.3757 19.8639C82.1457 19.7517 81.8955 19.6667 81.6288 19.6052C81.362 19.5436 81.0879 19.502 80.8046 19.4785C80.5764 19.4604 80.3648 19.4351 80.179 19.4025C79.9914 19.3718 79.8295 19.3265 79.6933 19.2668C79.5554 19.2089 79.4523 19.1293 79.3787 19.0262C79.3033 18.9249 79.2665 18.7946 79.2665 18.6354C79.2702 18.4744 79.3272 18.3369 79.4394 18.2211C79.5535 18.1053 79.7062 18.0166 79.8975 17.9569C80.087 17.8954 80.3005 17.8628 80.5378 17.8628C80.7273 17.8628 80.9223 17.8827 81.1265 17.9243C81.3289 17.966 81.5239 18.0293 81.706 18.1179C81.8919 18.2048 82.0519 18.317 82.1862 18.4526L83.1834 17.5914L83.1889 17.595ZM68.5425 18.1053C68.7283 18.1053 68.8884 18.1396 69.0208 18.203C69.1551 18.2663 69.2655 18.3495 69.352 18.4545C69.4385 18.5576 69.5029 18.6734 69.5452 18.7964C69.5875 18.9194 69.6096 19.0425 69.6114 19.1655C69.6114 19.2777 69.5912 19.3917 69.5507 19.5038C69.5102 19.6196 69.4477 19.7246 69.363 19.8205C69.2784 19.9164 69.1699 19.996 69.0374 20.0539C68.9049 20.1136 68.7467 20.1443 68.5646 20.1461H66.7524V18.1053H68.5425ZM71.4843 23.6489L69.5305 21.3276C69.869 21.2082 70.1468 21.0671 70.362 20.9097C70.5773 20.7504 70.7447 20.5786 70.8624 20.3886C70.9802 20.1986 71.063 19.9978 71.1108 19.7861C71.1568 19.5744 71.1807 19.3537 71.1807 19.1257C71.1807 18.8163 71.1237 18.5178 71.0115 18.2373C70.8974 17.9551 70.73 17.7054 70.5074 17.4829C70.2848 17.2621 70.0106 17.0884 69.6832 16.96C69.3538 16.8333 68.9767 16.7682 68.5443 16.7646H65.1665V23.7701H66.7542V21.4687H67.9041L69.7255 23.7701H71.4861V23.6507L71.4843 23.6489ZM58.4753 22.3281H54.6081V20.9169H58.1184V19.5455H54.6081V18.1939H58.3336V16.7628H53.0517V23.7683H58.4753V22.3281ZM41.5182 18.174H42.8722C43.242 18.174 43.5548 18.2337 43.8087 18.3477C44.0607 18.4617 44.2649 18.6119 44.4176 18.8055C44.5703 18.9972 44.6807 19.2125 44.7469 19.4532C44.815 19.692 44.8481 19.9399 44.8463 20.195C44.8463 20.3976 44.8297 20.6021 44.7893 20.8047C44.7506 21.0074 44.6862 21.201 44.5961 21.3819C44.5059 21.5646 44.3864 21.7256 44.2355 21.8668C44.0846 22.0079 43.897 22.1183 43.6707 22.1997C43.4462 22.2811 43.1813 22.3227 42.8722 22.3245H41.5182V18.1704V18.174ZM39.9507 16.7628V23.7683H42.8704C43.369 23.7683 43.8105 23.7014 44.1969 23.5747C44.5814 23.4481 44.9144 23.2708 45.194 23.0446C45.4737 22.8185 45.7036 22.5561 45.8821 22.2576C46.0642 21.959 46.1967 21.6352 46.2832 21.2878C46.3696 20.9404 46.4119 20.584 46.4119 20.2149C46.4119 19.8458 46.3678 19.493 46.2795 19.1528C46.1893 18.8127 46.0532 18.4979 45.8729 18.2084C45.6889 17.9189 45.4571 17.6656 45.1775 17.4503C44.896 17.235 44.563 17.0667 44.1821 16.9473C43.7995 16.8279 43.3616 16.7646 42.8704 16.7646H39.9507V16.7628ZM30.9211 21.1865H28.4687L29.6995 18.3441L30.9211 21.1865ZM32.0397 23.7683H33.7599L30.5642 16.7628H28.8348L25.6391 23.7683H27.3483L27.8671 22.567H31.5209L32.0397 23.7683ZM17.0364 18.1035C17.2203 18.1035 17.3822 18.1378 17.5147 18.2012C17.649 18.2645 17.7594 18.3477 17.8459 18.4526C17.9323 18.5558 17.9967 18.6716 18.039 18.7946C18.0814 18.9176 18.1034 19.0407 18.1053 19.1637C18.1053 19.2759 18.085 19.3899 18.0446 19.502C18.0041 19.6178 17.9415 19.7228 17.8569 19.8187C17.7723 19.9145 17.6637 19.9942 17.5313 20.0521C17.3988 20.1118 17.2406 20.1425 17.0584 20.1443H15.2463V18.1035H17.0382H17.0364ZM19.9782 23.6471L18.0243 21.3258C18.3628 21.2064 18.6406 21.0653 18.8559 20.9078C19.0711 20.7486 19.2386 20.5767 19.3563 20.3868C19.4759 20.1968 19.5568 19.996 19.6047 19.7843C19.6507 19.5726 19.6746 19.3519 19.6746 19.1239C19.6746 18.8145 19.6176 18.516 19.5053 18.2355C19.3913 17.9533 19.2238 17.7036 19.0012 17.4811C18.7786 17.2603 18.5045 17.0866 18.177 16.9582C17.8477 16.8315 17.4706 16.7664 17.0382 16.7628H13.6604V23.7683H15.2481V21.4669H16.398L18.2193 23.7683H19.98V23.6489L19.9782 23.6471ZM5.08708 23.7665V18.1523H7.25432V16.761H1.34131V18.1523H3.50855V23.7665H5.08708Z" fill="url(#paint1_radial_1_46)"/>
<defs>
<radialGradient id="paint0_radial_1_46" cx="0" cy="0" r="1" gradientUnits="userSpaceOnUse" gradientTransform="translate(42.6037 -0.00234337) rotate(90) scale(21.0017 74.279)">
<stop stop-color="white"/>
<stop offset="1" stop-color="#8D8E93"/>
</radialGradient>
<radialGradient id="paint1_radial_1_46" cx="0" cy="0" r="1" gradientUnits="userSpaceOnUse" gradientTransform="translate(42.6037 -0.00234337) rotate(90) scale(21.0017 74.279)">
<stop stop-color="white"/>
<stop offset="1" stop-color="#8D8E93"/>
</radialGradient>
</defs>
</svg>
